<svg width="121" height="109" viewBox="0 0 121 109" fill="none" xmlns="http://www.w3.org/2000/svg">
<g clip-path="url(#clip0_14_43)" filter="url(#filter0_d_14_43)">
<path d="M96.9055 32.7027C95.703 32.2887 94.4903 31.9051 93.2686 31.5523C93.4738 30.7106 93.6627 29.8792 93.8304 29.0623C96.5837 15.6484 94.7838 4.8418 88.6359 1.28376C82.7415 -2.1272 73.1015 1.4295 63.3658 9.93344C62.4063 10.773 61.4681 11.6368 60.552 12.524C59.9388 11.9341 59.3148 11.3556 58.6802 10.7888C48.4766 1.69618 38.2492 -2.13606 32.108 1.43216C26.2188 4.85376 24.4749 15.0127 26.9537 27.7254C27.2003 28.9844 27.4787 30.237 27.7887 31.4819C26.341 31.8947 24.9441 32.3342 23.6072 32.802C11.6443 36.9881 4.00464 43.5483 4.00464 50.3529C4.00464 57.3808 12.2062 64.43 24.666 68.7044C25.6762 69.0495 26.6947 69.3692 27.7208 69.6634C27.3875 71.0042 27.0917 72.354 26.8336 73.7114C24.4705 86.2035 26.3159 96.1223 32.1892 99.5222C38.2554 103.033 48.4369 99.4248 58.3505 90.7268C59.1544 90.0197 59.9406 89.2925 60.7083 88.546C61.7003 89.5066 62.7188 90.4393 63.7626 91.343C73.3659 99.6365 82.85 102.985 88.7176 99.5762C94.7781 96.055 96.7479 85.3995 94.1906 72.4356C93.9891 71.42 93.7632 70.4094 93.5131 69.4047C94.2281 69.1921 94.9299 68.9733 95.614 68.7456C108.567 64.4384 116.995 57.4748 116.995 50.3529C116.995 43.5235 109.109 36.919 96.9055 32.7027ZM94.0961 64.1474C93.4782 64.3525 92.8444 64.5505 92.1982 64.7432C90.7682 60.1995 88.8385 55.3684 86.4768 50.3764C88.7304 45.5036 90.5859 40.734 91.9758 36.22C93.1317 36.5558 94.2533 36.9097 95.3346 37.2832C105.791 40.8961 112.168 46.2372 112.168 50.3529C112.168 54.7367 105.28 60.4277 94.0961 64.1474ZM89.4556 73.3765C90.5864 79.1087 90.7475 84.2916 89.9985 88.3435C89.3258 91.9844 87.9726 94.4115 86.2989 95.3839C82.7384 97.4526 75.1234 94.7637 66.9109 87.6707C65.94 86.8305 64.9926 85.9634 64.0698 85.0703C67.2538 81.5757 70.4356 77.5131 73.5411 73.0009C79.0035 72.5145 84.164 71.7189 88.8438 70.6331C89.0693 71.5426 89.2732 72.4573 89.4556 73.3765ZM42.5256 95.0264C39.0467 96.2592 36.2758 96.2946 34.6008 95.3254C31.0368 93.2624 29.5551 85.298 31.5761 74.6151C31.8164 73.3527 32.0914 72.0972 32.401 70.8502C37.0292 71.8779 42.1522 72.6168 47.6274 73.0624C50.7541 77.4776 54.0277 81.5358 57.327 85.0894C56.6258 85.7703 55.9081 86.4338 55.1744 87.0793C50.7903 90.9252 46.3973 93.654 42.5256 95.0264ZM26.2276 64.1204C20.718 62.2302 16.1679 59.7738 13.0492 57.0933C10.2465 54.6849 8.8319 52.2932 8.8319 50.3529C8.8319 46.2234 14.9656 40.9564 25.1961 37.3766C26.4377 36.9425 27.7371 36.5328 29.0855 36.1483C30.4996 40.7641 32.3543 45.5904 34.5924 50.4708C32.3251 55.4233 30.444 60.3267 29.0162 64.997C28.0796 64.7278 27.1498 64.4355 26.2276 64.1204ZM31.6909 26.7947C29.5674 15.9031 30.9776 7.68707 34.5267 5.62499C38.3066 3.42868 46.6652 6.56013 55.4754 14.4115C56.0499 14.9247 56.6151 15.4482 57.1707 15.9819C53.8878 19.52 50.6442 23.5481 47.5453 27.9371C42.2312 28.4315 37.1444 29.2253 32.4677 30.2889C32.1795 29.1311 31.9205 27.9661 31.6909 26.7951V26.7947ZM80.43 38.8739C79.3254 36.9589 78.1797 35.0679 76.9939 33.2024C80.599 33.66 84.0532 34.2673 87.2968 35.0098C86.3232 38.1426 85.1094 41.4175 83.6807 44.7753C82.6364 42.7867 81.5526 40.8191 80.43 38.8739ZM60.5542 19.4443C62.7805 21.8652 65.0103 24.5678 67.2035 27.5003C62.7545 27.2895 58.298 27.2886 53.849 27.4977C56.0443 24.5922 58.2931 21.8931 60.5542 19.4443ZM40.5509 38.9071C39.4424 40.8367 38.3788 42.792 37.3612 44.7713C35.9558 41.4255 34.7531 38.1355 33.7711 34.9584C36.9948 34.2346 40.4326 33.6427 44.0148 33.1936C42.8158 35.0705 41.6608 36.9754 40.5509 38.9067V38.9071ZM44.1176 67.8569C40.4168 67.4423 36.9273 66.8811 33.7044 66.1767C34.7019 62.9429 35.9311 59.5829 37.3669 56.1653C38.3886 58.1461 39.4566 60.1026 40.5699 62.0331C41.7148 64.0176 42.9003 65.9614 44.1176 67.8569ZM60.6875 81.6027C58.3995 79.1255 56.1176 76.3848 53.8891 73.4372C56.0527 73.5222 58.2582 73.5657 60.5 73.5657C62.803 73.5657 65.0796 73.5138 67.3204 73.4137C65.1202 76.4145 62.8988 79.1592 60.6875 81.6027ZM83.7262 55.9908C85.2365 59.446 86.5094 62.7883 87.5202 65.9667C84.2443 66.7171 80.7072 67.3214 76.9803 67.7701C78.1745 65.87 79.331 63.9462 80.449 61.9998C81.5857 60.0215 82.6783 58.0179 83.7262 55.9908ZM76.2679 59.5794C74.5563 62.5635 72.7486 65.4909 70.8474 68.3571C67.4037 68.6019 63.9523 68.7235 60.5 68.7216C56.9836 68.7216 53.5634 68.6118 50.2699 68.3974C48.3191 65.5378 46.4769 62.6053 44.747 59.6059H44.7475C43.0258 56.6225 41.4176 53.5745 39.9264 50.4685C41.4138 47.3619 43.0171 44.3124 44.7329 41.3267L44.7325 41.3272C46.4476 38.3407 48.2752 35.4206 50.2112 32.5734C53.5713 32.3182 57.0171 32.1853 60.4995 32.1853H60.5C63.9983 32.1853 67.4484 32.3196 70.8077 32.5765C72.7242 35.4195 74.5401 38.3295 76.252 41.301C77.9735 44.2802 79.598 47.3147 81.123 50.3999C79.6137 53.5166 77.9943 56.5784 76.2679 59.5794ZM86.2252 5.48058C90.0086 7.67068 91.4801 16.5024 89.1029 28.0842C88.9511 28.8231 88.7807 29.5757 88.5953 30.339C83.9071 29.2528 78.8168 28.4452 73.4873 27.9433C70.3827 23.506 67.1655 19.4717 63.936 15.9793C64.7824 15.1604 65.6489 14.3628 66.5348 13.5872C74.8767 6.30142 82.673 3.4247 86.2252 5.48058ZM60.5 40.2263C66.0723 40.2263 70.5897 44.7603 70.5897 50.3529C70.5897 55.9456 66.0723 60.4795 60.5 60.4795C54.9277 60.4795 50.4102 55.9456 50.4102 50.3529C50.4102 44.7603 54.9277 40.2263 60.5 40.2263Z" fill="#00D8FF"/>
</g>
<defs>
<filter id="filter0_d_14_43" x="0" y="0" width="121" height="109" filterUnits="userSpaceOnUse" color-interpolation-filters="sRGB">
<feFlood flood-opacity="0" result="BackgroundImageFix"/>
<feColorMatrix in="SourceAlpha" type="matrix" values="0 0 0 0 0 0 0 0 0 0 0 0 0 0 0 0 0 0 127 0" result="hardAlpha"/>
<feOffset dy="4"/>
<feGaussianBlur stdDeviation="2"/>
<feComposite in2="hardAlpha" operator="out"/>
<feColorMatrix type="matrix" values="0 0 0 0 0 0 0 0 0 0 0 0 0 0 0 0 0 0 0.25 0"/>
<feBlend mode="normal" in2="BackgroundImageFix" result="effect1_dropShadow_14_43"/>
<feBlend mode="normal" in="SourceGraphic" in2="effect1_dropShadow_14_43" result="shape"/>
</filter>
<clipPath id="clip0_14_43">
<rect width="113" height="101" fill="white" transform="translate(4)"/>
</clipPath>
</defs>
</svg>
