<svg width="96" height="95" viewBox="0 0 96 95" fill="none" xmlns="http://www.w3.org/2000/svg">
<g clip-path="url(#clip0_14_49)" filter="url(#filter0_d_14_49)">
<path d="M4 75.7821C4 81.9781 9.08028 87 15.3468 87H80.6528C86.9204 87 92 81.9774 92 75.7821V11.2182C92 5.02187 86.9197 0 80.6532 0H15.3472C9.07959 0 4 5.02255 4 11.2179V75.7818V75.7821Z" fill="#563D7C"/>
<path d="M40.4919 38.4832V26.1629H51.4613C52.5063 26.1629 53.5135 26.2489 54.4836 26.4212C55.4536 26.5931 56.312 26.9003 57.0583 27.3431C57.8042 27.786 58.4013 28.4007 58.8492 29.1875C59.2968 29.9746 59.5209 30.9829 59.5209 32.2121C59.5209 34.4255 58.8492 36.0241 57.5058 37.0076C56.1628 37.9915 54.4464 38.4832 52.3568 38.4832H40.4919ZM28.7759 17.1621V69.8379H54.5956C56.9837 69.8379 59.3095 69.5429 61.5731 68.9526C63.8367 68.3623 65.8514 67.4525 67.6176 66.223C69.3834 64.9934 70.789 63.407 71.8337 61.4645C72.8787 59.5216 73.4008 57.2222 73.4008 54.5663C73.4008 51.2709 72.5923 48.4553 70.9757 46.1192C69.3587 43.7828 66.9084 42.1474 63.6249 41.2129C66.0129 40.0819 67.8166 38.6307 69.0355 36.8601C70.2541 35.0895 70.8636 32.8765 70.8636 30.2203C70.8636 27.7612 70.4532 25.6956 69.6323 24.0232C68.8114 22.3512 67.6547 21.0108 66.1621 20.0025C64.6699 18.9942 62.879 18.2686 60.7893 17.8262C58.7 17.3833 56.3866 17.1621 53.8493 17.1621H28.7759ZM40.4919 60.8371V46.3771H53.2523C55.7895 46.3771 57.8293 46.9548 59.3717 48.111C60.9138 49.2668 61.6851 51.1971 61.6851 53.9023C61.6851 55.2797 61.4486 56.4107 60.976 57.296C60.5033 58.1813 59.8691 58.8823 59.073 59.3986C58.2772 59.9151 57.3566 60.2839 56.312 60.5054C55.267 60.7263 54.1728 60.8371 53.0285 60.8371H40.4919Z" fill="white"/>
</g>
<defs>
<filter id="filter0_d_14_49" x="0" y="0" width="96" height="95" filterUnits="userSpaceOnUse" color-interpolation-filters="sRGB">
<feFlood flood-opacity="0" result="BackgroundImageFix"/>
<feColorMatrix in="SourceAlpha" type="matrix" values="0 0 0 0 0 0 0 0 0 0 0 0 0 0 0 0 0 0 127 0" result="hardAlpha"/>
<feOffset dy="4"/>
<feGaussianBlur stdDeviation="2"/>
<feComposite in2="hardAlpha" operator="out"/>
<feColorMatrix type="matrix" values="0 0 0 0 0 0 0 0 0 0 0 0 0 0 0 0 0 0 0.25 0"/>
<feBlend mode="normal" in2="BackgroundImageFix" result="effect1_dropShadow_14_49"/>
<feBlend mode="normal" in="SourceGraphic" in2="effect1_dropShadow_14_49" result="shape"/>
</filter>
<clipPath id="clip0_14_49">
<rect width="88" height="87" fill="white" transform="translate(4)"/>
</clipPath>
</defs>
</svg>
