<svg width="125" height="95" viewBox="0 0 125 95" fill="none" xmlns="http://www.w3.org/2000/svg">
<g clip-path="url(#clip0_14_47)" filter="url(#filter0_d_14_47)">
<path d="M104.673 50.0766C100.603 50.0975 97.0653 51.0694 94.1035 52.5063C93.0162 50.3721 91.9295 48.4708 91.738 47.076C91.5246 45.4493 91.2691 44.4561 91.5246 42.5122C91.7805 40.5683 92.9312 37.8001 92.9098 37.589C92.8887 37.3778 92.6538 36.3846 90.3098 36.3637C87.9658 36.3424 85.9413 36.8073 85.7068 37.42C85.4724 38.0326 85.025 39.4273 84.7266 40.8637C84.3216 42.9771 80.0386 50.5198 77.5881 54.471C76.7993 52.9291 76.1174 51.5765 75.968 50.499C75.755 48.8722 75.4991 47.879 75.755 45.9351C76.0109 43.9912 77.1617 41.2235 77.1402 41.0119C77.1187 40.8007 76.8843 39.8075 74.5403 39.7866C72.1958 39.7653 70.1713 40.2302 69.9373 40.8429C69.7029 41.4559 69.4469 42.8923 68.957 44.2871C68.4667 45.6818 62.7769 58.275 61.2852 61.5285C60.6824 62.8453 60.0501 64.1487 59.3886 65.4376C59.3886 65.4376 59.3672 65.501 59.3032 65.6066C59.0954 66.0107 58.8824 66.4122 58.6643 66.811V66.8318C58.3444 67.4028 58.0035 67.9307 57.833 67.9307C57.705 67.9307 57.4706 66.4095 57.8755 64.3387C58.7278 59.9652 60.7524 53.1615 60.7313 52.9291C60.7313 52.8022 61.1148 51.6191 59.4101 51.006C57.7475 50.3934 57.1511 51.4075 57.0017 51.4075C56.8527 51.4075 56.7458 51.7668 56.7458 51.7668C56.7458 51.7668 58.6003 44.118 53.2085 44.118C49.8417 44.118 45.1958 47.7734 42.8943 51.0694C40.278 52.4811 37.6639 53.8968 35.052 55.3166C33.7953 56.0139 32.4951 56.7113 31.2803 57.3661C31.1949 57.2818 31.1099 57.1758 31.0244 57.0915C24.5034 50.1822 12.442 45.3012 12.9534 36.0257C13.1453 32.6449 14.3171 23.7705 36.1178 12.9947C54.0608 4.22583 68.3392 6.65549 70.8111 12.0436C74.3484 19.7349 63.1608 34.0183 44.6204 36.0887C37.5455 36.8708 33.8373 34.1661 32.9 33.152C31.9197 32.0953 31.7703 32.0318 31.4079 32.2435C30.8115 32.5606 31.1949 33.5113 31.4079 34.0605C31.9622 35.4969 34.2422 38.0326 38.0994 39.2796C41.5091 40.378 49.7988 40.991 59.8361 37.1454C71.0666 32.8348 79.8466 20.8546 77.2682 10.8183C74.6893 0.633908 57.641 -2.72556 41.5091 2.95799C31.9197 6.33921 21.52 11.6634 14.0402 18.594C5.15363 26.834 3.74696 33.997 4.32233 36.9976C6.38984 47.6465 21.2006 54.5771 27.1248 59.7114C26.8263 59.8804 26.5489 60.0286 26.3149 60.1555C23.3526 61.6132 12.0581 67.4658 9.24523 73.6568C6.04891 80.6716 9.75708 85.7009 12.2076 86.3765C19.8154 88.4686 27.6362 84.7076 31.8342 78.4953C36.0323 72.2834 35.5209 64.2119 33.5818 60.5144C33.5604 60.4722 33.5393 60.4296 33.4964 60.3875C34.2637 59.9439 35.052 59.479 35.8194 59.0354C37.2296 58.2088 38.6578 57.4126 40.1029 56.6474C39.3781 58.6126 38.8452 60.958 38.5897 64.3387C38.2698 68.3113 39.9105 73.4665 42.063 75.4947C43.0223 76.3828 44.1515 76.4037 44.8763 76.4037C47.3908 76.4037 48.5205 74.3329 49.7778 71.8819C51.3119 68.8818 52.6971 65.3954 52.6971 65.3954C52.6971 65.3954 50.971 74.8191 55.6595 74.8191C57.3641 74.8191 59.0902 72.6214 59.8575 71.5017V71.5226C59.8575 71.5226 59.9 71.4592 59.9855 71.3114C60.156 71.0368 60.2624 70.8674 60.2624 70.8674V70.8257C60.9443 69.6421 62.4789 66.9587 64.7589 62.5004C67.6998 56.7534 70.5342 49.5696 70.5342 49.5696C70.5342 49.5696 70.7901 51.3232 71.6634 54.239C72.1753 55.9505 73.2401 57.831 74.0929 59.648C73.411 60.5991 72.9846 61.127 72.9846 61.127L73.0061 61.1483C72.4518 61.8665 71.8554 62.6481 71.1945 63.4094C68.8716 66.1558 66.1016 69.3045 65.7178 70.2126C65.2699 71.2901 65.3768 72.0722 66.2296 72.7062C66.8475 73.1711 67.9553 73.234 69.085 73.1711C71.1735 73.0229 72.6437 72.5158 73.3681 72.1991C74.4978 71.7976 75.819 71.1846 77.0548 70.276C79.3352 68.6067 80.72 66.2192 80.5925 63.0714C80.5285 61.3386 79.9531 59.6059 79.2498 57.9787C79.4632 57.6833 79.6547 57.3874 79.8681 57.0915C83.4693 51.8724 86.2612 46.1462 86.2612 46.1462C86.2612 46.1462 86.5171 47.8998 87.3905 50.8161C87.8168 52.2951 88.6907 53.901 89.4575 55.4643C86.0693 58.1903 83.9807 61.3594 83.2349 63.4302C81.8926 67.2759 82.9365 69.0082 84.9185 69.4097C85.8133 69.6 87.092 69.1772 88.0298 68.7757C89.2231 68.3956 90.6297 67.7408 91.9724 66.7684C94.2529 65.0995 96.4474 62.775 96.3195 59.6272C96.2555 58.1903 95.8721 56.7743 95.3392 55.4009C98.2161 54.2182 101.924 53.563 106.655 54.1122C116.799 55.2953 118.802 61.5706 118.418 64.2123C118.035 66.8531 115.904 68.29 115.201 68.7336C114.497 69.1777 114.263 69.3254 114.327 69.6421C114.412 70.107 114.753 70.0862 115.35 70.0014C116.181 69.8537 120.678 67.8672 120.869 63.0075C121.189 56.7956 115.222 50.0132 104.673 50.0766ZM26.4214 76.2346C23.0542 79.8687 18.3662 81.2421 16.3417 80.0803C14.1681 78.8333 15.0204 73.4665 19.1545 69.6213C21.669 67.2759 24.9083 65.0991 27.0608 63.7683C27.5507 63.4724 28.2755 63.0501 29.1493 62.5217C29.2983 62.437 29.3838 62.3948 29.3838 62.3948L29.8952 62.0776C31.4078 67.5713 29.9591 72.4103 26.4214 76.2346ZM50.9285 59.7114C49.7563 62.543 47.3058 69.7903 45.8141 69.3888C44.5354 69.0508 43.7466 63.5571 45.5582 58.1269C46.4745 55.4009 48.4136 52.147 49.5433 50.8796C51.3759 48.8509 53.4005 48.1744 53.8904 48.9991C54.5087 50.0766 51.6529 57.9365 50.9285 59.7114ZM71.152 69.3041C70.6617 69.5578 70.1932 69.7269 69.9798 69.6C69.8308 69.5153 70.1932 69.1772 70.1932 69.1772C70.1932 69.1772 72.7292 66.473 73.7305 65.2473C74.3063 64.5291 74.9877 63.684 75.7125 62.7329V63.0075C75.7125 66.2405 72.5583 68.4169 71.1516 69.3041H71.152ZM86.7511 65.7756C86.3887 65.5219 86.4527 64.6768 87.6674 62.0355C88.1363 61.0001 89.2441 59.2678 91.1411 57.5985C91.3541 58.2746 91.5035 58.9298 91.4821 59.5424C91.4606 63.6205 88.5202 65.1417 86.7511 65.7756Z" fill="#CD6799"/>
</g>
<defs>
<filter id="filter0_d_14_47" x="0" y="0" width="125" height="95" filterUnits="userSpaceOnUse" color-interpolation-filters="sRGB">
<feFlood flood-opacity="0" result="BackgroundImageFix"/>
<feColorMatrix in="SourceAlpha" type="matrix" values="0 0 0 0 0 0 0 0 0 0 0 0 0 0 0 0 0 0 127 0" result="hardAlpha"/>
<feOffset dy="4"/>
<feGaussianBlur stdDeviation="2"/>
<feComposite in2="hardAlpha" operator="out"/>
<feColorMatrix type="matrix" values="0 0 0 0 0 0 0 0 0 0 0 0 0 0 0 0 0 0 0.25 0"/>
<feBlend mode="normal" in2="BackgroundImageFix" result="effect1_dropShadow_14_47"/>
<feBlend mode="normal" in="SourceGraphic" in2="effect1_dropShadow_14_47" result="shape"/>
</filter>
<clipPath id="clip0_14_47">
<rect width="117" height="87" fill="white" transform="translate(4)"/>
</clipPath>
</defs>
</svg>
